<svg width="96" height="96" viewBox="0 0 470 383" fill="none" xmlns="http://www.w3.org/2000/svg">
<path d="M411.295 160.655C409.488 168.544 407.739 176.71 407.096 184.784C406.685 190.158 406.824 195.666 408.247 200.892C410.212 208.266 414.699 214.662 419.182 220.72C428.86 233.346 441.075 248.601 448.838 262.32C454.574 272.249 459.278 282.881 462.668 293.838C465.613 303.465 467.654 313.52 467.811 323.61C467.943 333.137 466.362 342.792 462.494 351.537C459.695 357.887 455.6 363.726 450.281 368.215C444.394 373.236 437.179 376.517 429.726 378.45C418.909 381.325 406.939 381.172 395.805 381.453L78.2769 381.592C73.2576 381.584 62.0135 381.54 57.188 381.353C49.7383 381.072 42.0573 380.615 34.7168 379.299C30.1022 378.461 25.4695 377.272 21.2617 375.158C17.8624 373.461 14.7574 371.133 12.2874 368.238C9.47906 364.977 7.51118 361.056 6.13216 356.999C2.95228 347.358 1.91372 337.044 2.39767 326.93C2.62036 323.081 3.05613 319.177 4.10324 315.458C4.96084 312.38 6.2617 309.416 7.78312 306.611C11.1236 300.501 15.478 294.704 19.6707 289.152C28.4406 277.769 44.6676 257.968 53.3732 246.663C55.2329 244.223 57.3464 241.341 59.0231 238.772C61.0263 235.681 62.8871 232.392 63.8507 228.813C65.2351 223.744 64.4921 218.368 63.2073 213.357C60.9043 204.656 56.8753 196.415 52.6451 188.506C43.5198 172.075 32.6429 153.761 26.9309 135.889C24.4191 128.194 22.4363 120.184 22.054 112.073C21.7928 106.122 22.4994 100.057 24.6172 94.4666C26.8421 88.5169 30.8014 83.1839 36.0402 79.5597C40.7596 76.2535 46.355 74.3166 52.0391 73.519C58.4674 72.6035 65.0466 73.1143 71.3882 74.4066C83.1366 76.746 95.7716 81.9002 107.054 85.9901C110.498 87.1796 114.054 88.4034 117.655 88.9869C119.741 89.3188 121.901 89.4195 123.977 88.973C126.919 88.3638 129.471 86.5875 131.577 84.504C133.513 82.5918 135.19 80.3745 136.731 78.1368C141.029 71.8059 145.699 63.0607 149.787 56.5714C156.134 46.369 163.975 36.5221 174.692 30.6923C182.194 26.6238 190.953 24.7887 199.446 25.8111C209.783 27.0435 219.171 32.5488 228.075 37.6045C230.073 38.672 232.175 39.808 234.483 39.9193C235.677 39.9771 236.869 39.6763 237.918 39.1088C240.193 37.8636 241.851 35.7673 243.365 33.7116C248.071 27.2351 251.988 19.157 257.625 13.4182C259.69 11.3261 262.072 9.54664 264.635 8.11195C269.474 5.42993 274.816 3.63978 280.229 2.54448C285.35 1.54341 290.692 1.19865 295.835 2.2297C301.946 3.41386 307.598 6.56913 311.983 10.9631C315.925 14.885 318.921 19.7116 321.707 24.4932C326.439 32.8347 331.37 42.0564 337.558 49.3872C339.583 51.7684 341.782 54.0896 344.386 55.8433C346.29 57.1174 348.494 58.0618 350.81 58.1378C352.799 58.2181 354.77 57.626 356.493 56.6517C358.068 55.7673 359.475 54.5917 360.771 53.3412C364.399 49.9269 368.65 43.9418 371.825 40.0435C377.421 33.0007 383.679 26.1902 391.438 21.5028C399.908 16.3368 410.25 13.4267 420.102 15.6805C427.592 17.3261 435.035 21.8465 437.659 29.3872C439.43 34.3401 439.399 39.7362 439.026 44.9193C438.476 51.8497 437.147 58.9419 435.747 65.7492C430.017 93.2942 417.762 133.122 411.295 160.655Z" stroke="#C346FF" stroke-width="2.75" stroke-miterlimit="10" stroke-linecap="round" stroke-linejoin="round"/>
<path d="M148.59 129.592C170.119 133.361 192.352 133.694 214.149 132.893C247.987 131.515 282.881 126.892 316.28 121.32" stroke="#C346FF" stroke-width="2.75" stroke-miterlimit="10" stroke-linecap="round" stroke-linejoin="round"/>
<path d="M196.593 96.5448C196.595 95.3809 196.197 94.2193 195.48 93.3028C194.766 92.382 193.739 91.7107 192.61 91.4281C191.064 91.0276 189.349 91.3831 188.09 92.3659C186.82 93.3349 186.041 94.9024 186.035 96.4998C186.012 98.1283 186.794 99.7386 188.09 100.726C189.349 101.708 191.064 102.064 192.61 101.664C193.74 101.38 194.766 100.709 195.48 99.7889C196.197 98.8702 196.595 97.7086 196.593 96.5448Z" stroke="#C346FF" stroke-width="2.75" stroke-miterlimit="10" stroke-linecap="round" stroke-linejoin="round"/>
<path d="M286.942 85.9869C286.944 84.8231 286.546 83.6614 285.829 82.7449C285.116 81.8242 284.088 81.1528 282.959 80.8702C281.413 80.4698 279.698 80.8252 278.439 81.8081C277.169 82.777 276.39 84.3445 276.384 85.9419C276.361 87.5704 277.144 89.1807 278.439 90.1679C279.698 91.1497 281.413 91.5062 282.959 91.1058C284.089 90.822 285.116 90.1507 285.829 89.231C286.546 88.3124 286.946 87.1507 286.942 85.9869Z" stroke="#C346FF" stroke-width="2.75" stroke-miterlimit="10" stroke-linecap="round" stroke-linejoin="round"/>
</svg>
