<svg width="96" height="96" viewBox="0 0 294 217" fill="none" xmlns="http://www.w3.org/2000/svg">
<g clip-path="url(#clip0_8_10)">
<path d="M67.551 34.9095L67.5513 34.9098C77.7897 45.5312 86.6408 57.2502 94.586 69.6786L94.5863 69.6791C96.5061 72.6741 98.3768 75.7137 100.154 78.7984L100.154 78.7987C100.296 79.0439 100.497 79.332 100.841 79.437C101.18 79.5402 101.508 79.4197 101.763 79.3043L101.768 79.3018C110.502 75.2205 119.653 72.5184 129.18 71.0117C136.581 69.852 144.079 69.4303 151.563 69.7529L151.564 69.7529C165.62 70.3294 179.105 73.3549 191.872 79.3391C192.235 79.5103 192.63 79.582 192.978 79.338C193.121 79.2377 193.215 79.1083 193.278 79.0107C193.319 78.9482 193.365 78.8677 193.402 78.8023C193.417 78.7752 193.431 78.7508 193.443 78.7312C198.897 69.4612 204.812 60.5031 211.371 51.9813C220.257 40.439 230.111 29.8477 241.542 20.7933C242.017 20.4178 242.492 20.0432 242.968 19.6697C242.985 19.707 243.005 19.7483 243.028 19.7885C245.607 24.2998 247.806 29.0037 249.83 33.8016C253.405 42.2848 256.359 50.9704 258.486 59.9249L258.486 59.9251C258.928 61.7826 259.304 63.655 259.614 65.5424L259.618 65.5642L259.623 65.5856C259.662 65.7365 259.673 65.8928 259.656 66.0468C248.13 78.5725 235.285 89.5956 221.478 99.534C221.344 99.6297 221.212 99.7337 221.106 99.8497C220.998 99.9691 220.891 100.13 220.86 100.338C220.828 100.549 220.884 100.736 220.96 100.889C221.034 101.036 221.141 101.178 221.256 101.314L221.258 101.316C227.944 109.101 232.969 117.795 235.689 127.707C239.853 142.893 237.907 157.431 230.706 171.329L231.13 171.549L230.706 171.329C225.025 182.299 216.777 191.051 206.712 198.151L206.712 198.151C195.162 206.307 182.332 211.468 168.479 214.201L168.479 214.201C162.874 215.313 157.189 215.976 151.478 216.182C151.467 216.182 151.451 216.182 151.431 216.181C151.351 216.179 151.214 216.175 151.115 216.182C150.991 216.192 150.847 216.218 150.699 216.289H142.781C142.132 216.163 141.484 216.119 140.857 216.096C140.631 216.087 140.411 216.082 140.195 216.076C139.781 216.065 139.38 216.054 138.971 216.026L138.97 216.026C125.871 215.13 113.316 212.1 101.41 206.557C88.8208 200.695 77.9576 192.609 69.4304 181.578C62.829 173.038 58.3812 163.519 56.5707 152.85C54.5945 141.198 56.1602 129.982 60.9198 119.18C63.8009 112.642 67.6388 106.709 72.3096 101.305C72.4258 101.171 72.5338 101.031 72.6084 100.884C72.6863 100.731 72.7421 100.543 72.7103 100.331C72.6791 100.123 72.5733 99.9627 72.4656 99.8431C72.3606 99.7266 72.2287 99.6215 72.0954 99.5243L72.0928 99.5224C59.3101 90.3263 47.3404 80.1808 36.4749 68.7705L36.474 68.7696C35.8119 68.0777 35.1638 67.3787 34.5112 66.6748C34.3229 66.4718 34.1343 66.2683 33.9448 66.0645C33.9397 65.1048 34.1511 64.1779 34.376 63.1925C34.43 62.9557 34.4848 62.7155 34.5376 62.4706L34.538 62.4687C36.5387 52.9971 39.5971 43.8482 43.2831 34.8957L43.2831 34.8957C45.4169 29.7125 47.7686 24.6379 50.5506 19.7814L50.5507 19.7814L50.5552 19.7732C50.5757 19.7358 50.5941 19.6971 50.6099 19.6617C56.615 24.3315 62.2766 29.4272 67.551 34.9095Z" fill="white" stroke="black"/>
<path d="M11.1314 35.0953L11.1314 35.0952C7.22483 28.1298 3.93108 20.9122 1.85715 13.196L1.85714 13.196C1.16253 10.6124 0.657817 8.00449 0.523647 5.35058L0.523705 5.35058L0.523203 5.34295C0.457264 4.34237 0.532039 3.33748 0.745342 2.35768L0.745505 2.35772L0.747931 2.345C0.801594 2.06364 0.929803 1.80184 1.11917 1.58694C1.30854 1.37204 1.55213 1.21192 1.8245 1.12328L1.82454 1.12341L1.83533 1.11962C2.77748 0.789043 3.76431 0.60323 4.76217 0.568522L4.76217 0.568552L4.76763 0.568302C10.3538 0.312842 15.7122 1.56265 21.0122 3.32284L21.1698 2.84832L21.0122 3.32284C30.9985 6.6392 40.0031 11.852 48.4741 18.0655L48.4764 18.0672C48.92 18.3887 49.3561 18.715 49.7945 19.043C49.8426 19.079 49.8907 19.115 49.9389 19.151C49.5892 19.8193 49.2305 20.4886 48.8705 21.1604C48.0856 22.6251 47.2941 24.102 46.5744 25.6077C41.0315 37.1747 36.6601 49.1583 33.8787 61.7064C33.6512 62.7308 33.4437 63.7642 33.2375 64.7915C33.21 64.9287 33.1825 65.0658 33.1549 65.2028C24.7656 55.9268 17.2537 46.0161 11.1314 35.0953ZM1.37439 13.3258L1.37428 13.3258L1.37439 13.3258Z" fill="white" stroke="black"/>
<path d="M264.96 6.28629L264.96 6.28648C257.33 9.71077 250.289 14.1279 243.616 19.1671C243.647 19.2347 243.679 19.3003 243.718 19.3706C243.718 19.3708 243.718 19.371 243.718 19.3711L243.279 19.6108C250.314 32.4103 255.416 45.9508 258.821 60.1393C259.155 61.5327 259.441 62.9389 259.726 64.3452C259.815 64.7855 259.905 65.2258 259.995 65.6657L264.96 6.28629ZM264.96 6.28629C270.221 3.91922 275.629 2.05117 281.306 1.08523L281.222 0.592314L281.306 1.08523C284.5 0.54157 287.654 0.210503 290.798 0.851159C291.725 1.04155 292.188 1.26555 292.461 1.57815C292.737 1.89323 292.899 2.38679 292.985 3.32991L292.985 3.33098C293.276 6.47475 292.644 9.53371 291.852 12.6225C289.666 21.1445 285.951 29.0344 281.554 36.6467L281.554 36.647C275.6 46.968 268.401 56.3785 260.412 65.2071L264.96 6.28629Z" fill="white" stroke="black"/>
</g>
<defs>
<clipPath id="clip0_8_10">
<rect width="293.557" height="216.789" fill="white"/>
</clipPath>
</defs>
</svg>
