<svg width="96" height="96" viewBox="0 0 294 217" fill="none" xmlns="http://www.w3.org/2000/svg">
<g clip-path="url(#clip0_8_2)">
<path d="M50.5788 19.0048C56.7285 23.7606 62.5215 28.9605 67.9113 34.5628C78.1773 45.2128 87.0483 56.9593 95.0073 69.4093C96.9303 72.4093 98.8053 75.4558 100.587 78.5488C100.857 79.0168 101.06 79.0738 101.556 78.8488C110.336 74.7463 119.532 72.0313 129.102 70.5178C136.536 69.3529 144.067 68.9293 151.584 69.2533C165.701 69.8323 179.252 72.8713 192.084 78.8863C192.684 79.1698 192.792 78.8518 193.011 78.4783C198.474 69.1933 204.401 60.2173 210.975 51.6763C219.879 40.1098 229.761 29.4868 241.232 20.4013C241.82 19.9363 242.408 19.4728 242.997 19.0108C243.315 19.0423 243.347 19.3393 243.462 19.5403C246.054 24.0748 248.262 28.7983 250.29 33.6073C253.875 42.1123 256.838 50.8243 258.972 59.8093C259.417 61.6783 259.796 63.5623 260.108 65.4613C260.176 65.7279 260.182 66.0067 260.124 66.2758C248.546 78.8758 235.64 89.9563 221.769 99.9403C221.265 100.302 221.211 100.488 221.637 100.99C228.363 108.822 233.429 117.58 236.171 127.575C240.371 142.891 238.404 157.558 231.15 171.559C225.426 182.611 217.119 191.421 207 198.559C195.387 206.76 182.49 211.947 168.576 214.692C162.941 215.81 157.226 216.475 151.485 216.682C151.266 216.682 151.035 216.643 150.833 216.789H142.733C141.479 216.538 140.201 216.612 138.936 216.525C125.781 215.625 113.165 212.581 101.199 207.01C88.5483 201.12 77.6178 192.987 69.0348 181.884C62.3883 173.286 57.9033 163.692 56.0778 152.934C54.0843 141.18 55.6653 129.865 60.4623 118.978C63.3648 112.392 67.2303 106.417 71.9313 100.978C72.3603 100.483 72.3048 100.296 71.8008 99.9283C58.9968 90.7168 47.0028 80.5513 36.1128 69.1153C35.2128 68.1748 34.3368 67.2193 33.4488 66.2653C33.4023 64.9273 33.7728 63.6463 34.0488 62.3653C36.0573 52.8568 39.1263 43.6783 42.8208 34.7053C44.9598 29.5093 47.3208 24.4138 50.1168 19.5328C50.2278 19.3303 50.2593 19.0333 50.5788 19.0048Z" fill="#FDDC00"/>
<path d="M50.5788 19.0048C49.3998 21.2803 48.1338 23.5048 47.0253 25.8238C41.4963 37.3618 37.1388 49.3093 34.3668 61.8148C34.0383 63.2938 33.7533 64.7848 33.4488 66.2698C24.7728 56.7628 17.0013 46.5883 10.6953 35.3398C6.77578 28.3513 3.46228 21.0943 1.37428 13.3258C0.673785 10.7203 0.160785 8.07582 0.0242847 5.37582C-0.0447297 4.32858 0.0335332 3.27682 0.256785 2.25132C0.327217 1.88204 0.495491 1.53843 0.744039 1.25638C0.992587 0.974318 1.31229 0.764154 1.66978 0.647824C2.65963 0.300508 3.69641 0.105289 4.74478 0.0688242C10.4193 -0.190676 15.8448 1.07982 21.1698 2.84832C31.2198 6.18582 40.2708 11.4283 48.7698 17.6623C49.3803 18.1048 49.9788 18.5578 50.5788 19.0048Z" fill="black"/>
<path d="M260.121 66.2698C259.691 64.2253 259.308 62.1688 258.821 60.1393C255.416 45.9508 250.314 32.4103 243.279 19.6108C243.173 19.4158 243.089 19.2073 242.994 19.0108C249.785 13.8538 256.961 9.32831 264.755 5.83031C270.042 3.45131 275.492 1.56731 281.222 0.592314C284.43 0.0463138 287.66 -0.298686 290.898 0.361314C292.797 0.751314 293.309 1.36331 293.483 3.28481C293.783 6.52031 293.13 9.65081 292.337 12.7468C290.135 21.3283 286.397 29.2618 281.987 36.8968C275.847 47.5393 268.392 57.2113 260.121 66.2698Z" fill="black"/>
</g>
<defs>
<clipPath id="clip0_8_2">
<rect width="293.557" height="216.789" fill="white"/>
</clipPath>
</defs>
</svg>
