<svg width="96" height="96" viewBox="0 0 469 384" fill="none" xmlns="http://www.w3.org/2000/svg">
<path d="M411.01 161.05C409.203 168.939 407.455 177.104 406.811 185.178C406.4 190.553 406.539 196.061 407.962 201.287C409.928 208.66 414.414 215.056 418.898 221.114C428.576 233.741 440.791 248.995 448.553 262.715C454.29 272.643 458.993 283.276 462.383 294.232C465.328 303.86 467.369 313.914 467.526 324.004C467.658 333.532 466.078 343.186 462.21 351.931C459.411 358.282 455.316 364.121 449.996 368.609C444.109 373.631 436.895 376.911 429.442 378.845C418.625 381.72 406.655 381.566 395.52 381.848L77.9922 381.986C72.9729 381.979 61.7288 381.935 56.9033 381.747C49.4536 381.467 41.7726 381.01 34.4321 379.694C29.8176 378.856 25.1848 377.667 20.9771 375.553C17.5777 373.856 14.4728 371.528 12.0027 368.633C9.19439 365.372 7.22651 361.451 5.84749 357.394C2.66761 347.753 1.62906 337.439 2.113 327.324C2.3357 323.475 2.77146 319.572 3.81857 315.852C4.67618 312.775 5.97703 309.81 7.49845 307.005C10.8389 300.896 15.1933 295.098 19.3861 289.547C28.1559 278.164 44.3829 258.363 53.0885 247.058C54.9483 244.618 57.0618 241.735 58.7384 239.167C60.7416 236.076 62.6025 232.787 63.5661 229.207C64.9504 224.139 64.2074 218.763 62.9226 213.751C60.6196 205.051 56.5907 196.81 52.3605 188.901C43.2352 172.47 32.3583 154.156 26.6463 136.283C24.1345 128.588 22.1516 120.579 21.7694 112.467C21.5081 106.516 22.2148 100.451 24.3325 94.8612C26.5574 88.9115 30.5167 83.5785 35.7555 79.9543C40.475 76.6481 46.0703 74.7113 51.7545 73.9136C58.1827 72.9982 64.762 73.5089 71.1035 74.8012C82.852 77.1406 95.4869 82.2948 106.77 86.3848C110.213 87.5743 113.77 88.7981 117.37 89.3816C119.456 89.7135 121.617 89.8141 123.693 89.3676C126.635 88.7584 129.186 86.9822 131.292 84.8987C133.228 82.9865 134.906 80.7691 136.446 78.5314C140.744 72.2006 145.414 63.4554 149.502 56.9661C155.849 46.7637 163.691 36.9167 174.407 31.087C181.909 27.0184 190.668 25.1833 199.162 26.2058C209.498 27.4381 218.887 32.9435 227.79 37.9992C229.788 39.0666 231.89 40.2026 234.198 40.314C235.392 40.3718 236.585 40.0709 237.633 39.5035C239.908 38.2583 241.567 36.1619 243.08 34.1062C247.786 27.6298 251.704 19.5516 257.341 13.8128C259.405 11.7208 261.787 9.94129 264.35 8.5066C269.19 5.82458 274.531 4.03443 279.945 2.93914C285.066 1.93806 290.407 1.5933 295.551 2.62436C301.661 3.80851 307.313 6.96378 311.698 11.3578C315.641 15.2796 318.636 20.1062 321.422 24.8878C326.155 33.2294 331.085 42.451 337.273 49.7819C339.298 52.163 341.497 54.4842 344.101 56.238C346.006 57.5121 348.209 58.4564 350.525 58.5324C352.514 58.6127 354.485 58.0206 356.208 57.0463C357.783 56.162 359.19 54.9864 360.487 53.7359C364.114 50.3215 368.366 44.3365 371.54 40.4382C377.136 33.3953 383.395 26.5848 391.154 21.8974C399.624 16.7315 409.965 13.8214 419.818 16.0751C427.307 17.7208 434.75 22.2411 437.374 29.7818C439.145 34.7347 439.114 40.1309 438.742 45.314C438.191 52.2444 436.863 59.3365 435.462 66.1438C429.732 93.6888 417.477 133.517 411.01 161.05Z" fill="#C346FF" stroke="#1E1E1E" stroke-width="2.75" stroke-miterlimit="10" stroke-linecap="round" stroke-linejoin="round"/>
<path d="M148.305 129.987C169.834 133.755 192.067 134.088 213.864 133.287C247.703 131.91 282.597 127.286 315.995 121.715" stroke="#1E1E1E" stroke-width="2.75" stroke-miterlimit="10" stroke-linecap="round" stroke-linejoin="round"/>
<path d="M196.308 96.9394C196.311 95.7756 195.912 94.6139 195.195 93.6974C194.482 92.7766 193.454 92.1054 192.326 91.8227C190.779 91.4223 189.064 91.7777 187.805 92.7606C186.535 93.7295 185.756 95.297 185.751 96.8945C185.727 98.5229 186.51 100.133 187.805 101.12C189.064 102.102 190.779 102.459 192.326 102.058C193.455 101.775 194.482 101.103 195.195 100.184C195.912 99.2649 196.311 98.1032 196.308 96.9394Z" fill="#1E1E1E" stroke="#1E1E1E" stroke-width="2.75" stroke-miterlimit="10" stroke-linecap="round" stroke-linejoin="round"/>
<path d="M286.658 86.3816C286.66 85.2178 286.262 84.0561 285.544 83.1396C284.831 82.2188 283.803 81.5475 282.675 81.2648C281.129 80.8644 279.414 81.2199 278.154 82.2027C276.885 83.1717 276.105 84.7391 276.1 86.3366C276.076 87.9651 276.859 89.5754 278.154 90.5625C279.414 91.5443 281.129 91.9008 282.675 91.5004C283.804 91.2167 284.831 90.5454 285.544 89.6257C286.262 88.7071 286.661 87.5454 286.658 86.3816Z" fill="#1E1E1E" stroke="#1E1E1E" stroke-width="2.75" stroke-miterlimit="10" stroke-linecap="round" stroke-linejoin="round"/>
</svg>
